<svg data-v-0dd9719b="" version="1.0" xmlns="http://www.w3.org/2000/svg" xmlns:xlink="http://www.w3.org/1999/xlink" width="100%" height="100%" viewBox="0 0 340.000000 250.000000" preserveAspectRatio="xMidYMid meet" color-interpolation-filters="sRGB" style="margin: auto;"> <rect data-v-0dd9719b="" x="0" y="0" width="100%" height="100%" fill="#fff" fill-opacity="1" class="background"></rect> <rect data-v-0dd9719b="" x="0" y="0" width="100%" height="100%" fill="url(#watermark)" fill-opacity="1" class="watermarklayer"></rect> <g data-v-0dd9719b="" fill="#333" class="icon-text-wrapper icon-svg-group iconsvg" transform="translate(81.3499983549118,74.13257598997026)"><g class="iconsvg-imagesvg" transform="translate(58.650001525878906,0)"><g><rect fill="#333" fill-opacity="0" stroke-width="2" x="0" y="0" width="60" height="59.474837187633206" class="image-rect"></rect> <svg x="0" y="0" width="60" height="59.474837187633206" filtersec="colorsb3217676343" class="image-svg-svg primary" style="overflow: visible;"><svg xmlns="http://www.w3.org/2000/svg" xlink="http://www.w3.org/1999/xlink" viewBox="-0.00009275852789869532 0.01587200164794922 93.07501220703125 92.26067352294922"><defs><linearGradient id="a57506ac8-fdce-4993-afb8-d3dda7eca017" x1="10.75" y1="46.14" x2="93.06" y2="46.14" gradientUnits="userSpaceOnUse"><stop offset="0" stop-color="#016737"></stop><stop offset="1" stop-color="#9f0"></stop></linearGradient><linearGradient id="dba4e815d-36c6-4ffa-b44b-8acf6555c86a" x1="14.83" y1="17.68" x2="58.09" y2="17.68" href="#a57506ac8-fdce-4993-afb8-d3dda7eca017"></linearGradient><linearGradient id="c53b656b3-3dd4-4011-ac06-55ff49db101b" y1="43.26" x2="44.96" y2="43.26" gradientUnits="userSpaceOnUse"><stop offset="0" stop-color="#ff0"></stop><stop offset="1" stop-color="#e37315"></stop></linearGradient><linearGradient id="b83a2aabd-6efc-4f3c-8ca6-7c14c1eefc00" x1="10.75" y1="62.04" x2="93.06" y2="62.04" gradientUnits="userSpaceOnUse"><stop offset="0" stop-color="#039"></stop><stop offset="1" stop-color="#65e0ff"></stop></linearGradient><linearGradient id="ef3da19b6-85b5-4d12-af5c-dd013e7d88c8" x1="25.72" y1="62.04" x2="93.06" y2="62.04" href="#b83a2aabd-6efc-4f3c-8ca6-7c14c1eefc00"></linearGradient><linearGradient id="f3fe562cb-b110-43e7-a8be-c89645fcb3cb" y1="45.61" x2="32.32" y2="45.61" href="#c53b656b3-3dd4-4011-ac06-55ff49db101b"></linearGradient></defs><g fill-rule="evenodd"><path d="M69 16c12.31 23.3-4.53 56.45-39.92 63.75 27.3-.18 56.38-20.5 61.84-47.91a46.54 46.54 0 0 1-80.17 43.65c15.65 3.62 34.85-5 43.68-19.26 6.81-11 8.52-23.52 3.66-34L46.52 29C42 17.64 28.93 9 16.67 11.52q-.95.2-1.86.48C31-3.28 56.33-6 69 16" fill="url(#a57506ac8-fdce-4993-afb8-d3dda7eca017)"></path><path d="M58.09 22.27L46.52 29C42 17.64 28.93 9 16.67 11.52a18.38 18.38 0 0 0-1.84.48c.41-.39.82-.77 1.25-1.14 7.65-6.37 28.48-8.42 42 11.41" fill="url(#dba4e815d-36c6-4ffa-b44b-8acf6555c86a)"></path><path d="M8.25 72.19q-1.32-1.91-2.46-4C20 68.5 36.45 53.91 32.32 37.15L19.07 44.8C23.53 56.71 6.21 72.64 2 59.3a46.34 46.34 0 0 1-2-13.56 45.17 45.17 0 0 1 2.71-15.41c.64-1.54 1.28-3.06 1.93-4.54S6 23.14 6.8 21.87c9.94-14.44 31.42-6.29 36.88 8.72 6.54 17.3-13 41.87-35.43 41.6" fill="url(#c53b656b3-3dd4-4011-ac06-55ff49db101b)"></path><path d="M29.1 79.71c27.3-.18 56.38-20.5 61.84-47.91a46.54 46.54 0 0 1-80.19 43.69s5.13 4.38 18.35 4.22" fill="url(#b83a2aabd-6efc-4f3c-8ca6-7c14c1eefc00)"></path><path d="M90.94 31.8a46.55 46.55 0 0 1-65.22 55.57c36.88 4.4 72.9-31.31 65.22-55.57" fill="url(#ef3da19b6-85b5-4d12-af5c-dd013e7d88c8)"></path><path d="M32.32 37.15L19.07 44.8C23.53 56.71 6.21 72.64 2 59.3a46.34 46.34 0 0 1-2-13.56c.16-25.21 28.05-22.07 32.32-8.59" fill="url(#f3fe562cb-b110-43e7-a8be-c89645fcb3cb)"></path></g></svg></svg> <!----></g></g> <g transform="translate(0,66.47483825683594)"><g data-gra="path-name" fill-rule="" class="tp-name iconsvg-namesvg"><g transform="scale(1)"><g><path d="M17.92-31.94L17.92-31.94Q20.92-31.94 22.83-31.1 24.73-30.26 26.23-29.06L26.23-29.06Q26.76-28.67 27.12-28.67L27.12-28.67Q27.96-28.67 28.22-31.32L28.22-31.32 29.24-31.32Q29.15-29.59 29.11-27.14 29.06-24.68 29.06-20.61L29.06-20.61 28.05-20.61Q27.74-23.27 27.1-25.24 26.45-27.21 24.73-28.62L24.73-28.62Q23.67-29.64 22.1-30.21 20.53-30.79 18.93-30.79L18.93-30.79Q16.5-30.79 14.78-29.53 13.05-28.27 11.94-26.1 10.84-23.93 10.31-21.21 9.78-18.49 9.78-15.57L9.78-15.57Q9.78-7.61 11.97-3.94 14.16-0.27 18.27-0.27L18.27-0.27Q19.33-0.27 20.13-0.53 20.92-0.8 21.41-1.15L21.41-1.15Q22.03-1.59 22.25-2.1 22.47-2.61 22.47-3.45L22.47-3.45 22.47-7.79Q22.47-9.82 22.14-10.82 21.81-11.81 20.84-12.17 19.86-12.52 18-12.56L18-12.56 18-13.45Q18.93-13.4 20.24-13.38 21.54-13.36 22.96-13.34 24.37-13.32 25.57-13.32L25.57-13.32Q27.43-13.32 28.98-13.36 30.52-13.4 31.5-13.45L31.5-13.45 31.5-12.56Q30.26-12.47 29.88-11.86 29.51-11.24 29.51-8.76L29.51-8.76 29.51 0 28.62 0Q28.58-0.75 28.29-1.64 28-2.52 27.34-2.52L27.34-2.52Q27.03-2.52 26.52-2.37 26.01-2.21 24.95-1.59L24.95-1.59Q23.31-0.66 21.5-0.02 19.69 0.62 17.69 0.62L17.69 0.62Q9.95 0.62 5.93-3.58 1.9-7.79 1.9-15.31L1.9-15.31Q1.9-20.35 3.96-24.06 6.02-27.78 9.62-29.86 13.23-31.94 17.92-31.94ZM44.99-23.49L44.99-23.49Q48.22-23.49 50.65-22.3 53.08-21.1 54.46-18.45 55.83-15.79 55.83-11.41L55.83-11.41Q55.83-7.03 54.46-4.4 53.08-1.77 50.65-0.58 48.22 0.62 44.99 0.62L44.99 0.62Q41.85 0.62 39.39-0.58 36.94-1.77 35.54-4.4 34.15-7.03 34.15-11.41L34.15-11.41Q34.15-15.79 35.54-18.45 36.94-21.1 39.39-22.3 41.85-23.49 44.99-23.49ZM44.99-22.61L44.99-22.61Q43.22-22.61 42.03-19.97 40.83-17.34 40.83-11.41L40.83-11.41Q40.83-5.49 42.03-2.88 43.22-0.27 44.99-0.27L44.99-0.27Q46.8-0.27 47.97-2.88 49.15-5.49 49.15-11.41L49.15-11.41Q49.15-17.34 47.97-19.97 46.8-22.61 44.99-22.61ZM69.98-23.49L69.98-23.49Q73.21-23.49 75.65-22.3 78.08-21.1 79.45-18.45 80.82-15.79 80.82-11.41L80.82-11.41Q80.82-7.03 79.45-4.4 78.08-1.77 75.65-0.58 73.21 0.62 69.98 0.62L69.98 0.62Q66.84 0.62 64.39-0.58 61.93-1.77 60.54-4.4 59.14-7.03 59.14-11.41L59.14-11.41Q59.14-15.79 60.54-18.45 61.93-21.1 64.39-22.3 66.84-23.49 69.98-23.49ZM69.98-22.61L69.98-22.61Q68.21-22.61 67.02-19.97 65.82-17.34 65.82-11.41L65.82-11.41Q65.82-5.49 67.02-2.88 68.21-0.27 69.98-0.27L69.98-0.27Q71.8-0.27 72.97-2.88 74.14-5.49 74.14-11.41L74.14-11.41Q74.14-17.34 72.97-19.97 71.8-22.61 69.98-22.61ZM105.33-34.64L105.33-34.64 105.33-4.87Q105.33-2.88 105.95-1.92 106.57-0.97 108.16-0.97L108.16-0.97 108.16-0.04Q106.79-0.18 105.42-0.18L105.42-0.18Q103.56-0.18 101.94-0.04 100.33 0.09 98.96 0.44L98.96 0.44 98.96-29.33Q98.96-31.32 98.36-32.27 97.76-33.22 96.13-33.22L96.13-33.22 96.13-34.15Q97.54-34.02 98.87-34.02L98.87-34.02Q100.68-34.02 102.32-34.17 103.96-34.33 105.33-34.64ZM94.05-23.49L94.05-23.49Q95.99-23.49 97.48-22.85 98.96-22.21 99.8-20.7L99.8-20.7 99.27-20.22Q98.69-21.28 97.74-21.74 96.79-22.21 95.73-22.21L95.73-22.21Q93.47-22.21 92.15-19.57 90.82-16.94 90.86-11.46L90.86-11.46Q90.86-7.7 91.37-5.46 91.88-3.23 92.83-2.26 93.78-1.28 95.02-1.28L95.02-1.28Q96.52-1.28 97.72-2.48 98.91-3.67 99-5.71L99-5.71 99.22-4.16Q98.56-1.81 97.08-0.6 95.6 0.62 93.21 0.62L93.21 0.62Q90.6 0.62 88.54-0.66 86.48-1.95 85.33-4.62 84.18-7.3 84.18-11.55L84.18-11.55Q84.18-15.57 85.47-18.2 86.75-20.84 88.98-22.16 91.22-23.49 94.05-23.49ZM121.43-23.49L121.43-23.49Q125.32-23.49 127.54-21.19 129.75-18.89 129.75-13.67L129.75-13.67 115.19-13.67 115.1-14.51 124.17-14.51Q124.22-16.68 123.91-18.51 123.6-20.35 122.93-21.45 122.27-22.56 121.16-22.56L121.16-22.56Q119.62-22.56 118.53-20.61 117.45-18.67 117.23-14.16L117.23-14.16 117.36-13.89Q117.32-13.36 117.29-12.78 117.27-12.21 117.27-11.59L117.27-11.59Q117.27-8.54 118.13-6.64 119-4.73 120.32-3.87 121.65-3.01 123.02-3.01L123.02-3.01Q124.35-3.01 125.92-3.67 127.49-4.34 128.86-6.55L128.86-6.55 129.66-6.28Q129.13-4.6 127.98-3.01 126.83-1.42 125.06-0.4 123.29 0.62 120.81 0.62L120.81 0.62Q117.8 0.62 115.5-0.66 113.2-1.95 111.9-4.56 110.59-7.17 110.59-11.19L110.59-11.19Q110.59-15.31 111.99-18.05 113.38-20.79 115.83-22.14 118.29-23.49 121.43-23.49ZM143.73-23.49L143.73-23.49Q147.62-23.49 149.83-21.19 152.04-18.89 152.04-13.67L152.04-13.67 137.49-13.67 137.4-14.51 146.47-14.51Q146.51-16.68 146.2-18.51 145.89-20.35 145.23-21.45 144.57-22.56 143.46-22.56L143.46-22.56Q141.91-22.56 140.83-20.61 139.74-18.67 139.52-14.16L139.52-14.16 139.66-13.89Q139.61-13.36 139.59-12.78 139.57-12.21 139.57-11.59L139.57-11.59Q139.57-8.54 140.43-6.64 141.29-4.73 142.62-3.87 143.95-3.01 145.32-3.01L145.32-3.01Q146.65-3.01 148.22-3.67 149.79-4.34 151.16-6.55L151.16-6.55 151.95-6.28Q151.42-4.6 150.27-3.01 149.12-1.42 147.35-0.4 145.58 0.62 143.11 0.62L143.11 0.62Q140.1 0.62 137.8-0.66 135.5-1.95 134.19-4.56 132.89-7.17 132.89-11.19L132.89-11.19Q132.89-15.31 134.28-18.05 135.67-20.79 138.13-22.14 140.58-23.49 143.73-23.49ZM176.37-34.64L176.37-34.64 176.37-4.87Q176.37-2.88 176.99-1.92 177.61-0.97 179.2-0.97L179.2-0.97 179.2-0.04Q177.83-0.18 176.46-0.18L176.46-0.18Q174.6-0.18 172.99-0.04 171.37 0.09 170 0.44L170 0.44 170-29.33Q170-31.32 169.41-32.27 168.81-33.22 167.17-33.22L167.17-33.22 167.17-34.15Q168.59-34.02 169.91-34.02L169.91-34.02Q171.73-34.02 173.36-34.17 175-34.33 176.37-34.64ZM165.09-23.49L165.09-23.49Q167.04-23.49 168.52-22.85 170-22.21 170.84-20.7L170.84-20.7 170.31-20.22Q169.74-21.28 168.79-21.74 167.83-22.21 166.77-22.21L166.77-22.21Q164.52-22.21 163.19-19.57 161.86-16.94 161.91-11.46L161.91-11.46Q161.91-7.7 162.42-5.46 162.92-3.23 163.88-2.26 164.83-1.28 166.07-1.28L166.07-1.28Q167.57-1.28 168.76-2.48 169.96-3.67 170.05-5.71L170.05-5.71 170.27-4.16Q169.6-1.81 168.12-0.6 166.64 0.62 164.25 0.62L164.25 0.62Q161.64 0.62 159.58-0.66 157.53-1.95 156.38-4.62 155.23-7.3 155.23-11.55L155.23-11.55Q155.23-15.57 156.51-18.2 157.79-20.84 160.03-22.16 162.26-23.49 165.09-23.49Z" transform="translate(-1.9000000953674316, 34.63999938964844)"></path></g> <!----> <!----> <!----> <!----> <!----> <!----> <!----></g></g> <!----></g></g><defs v-gra="od"></defs></svg>